:FULLY-SPECIFIED
:FORCE-ALL-JOINTS-BE-3DOF
:DEGREES
127
root 0.75186 17.2442 31.4994 1.16887 -5.96348 -3.8083
lfemur -10.0167 13.6334 -8.64097
ltibia 108.301 0 0
lfoot 22.4595 -6.34868 0
ltoes -9.28816 0 0
rfemur -17.1064 4.21125 31.2265
rtibia 41.1492 0 0
rfoot -15.2679 -7.32251 0
rtoes 0.514304 0 0
lowerback 17.9689 -1.99653 5.36527
upperback 1.68308 -1.37433 2.24848
thorax -8.33651 -0.809333 -0.27405
lowerneck -5.94179 3.10218 0.681529
upperneck -10.4651 3.75496 -4.95964
head -2.18305 1.93937 -1.69472
lclavicle -6.4605e-15 4.77083e-15 0
lhumerus -49.9002 -15.5595 94.0621
lradius 104.998 0 0
lwrist 30.607 0 0
lhand -38.1052 8.5552 0
lfingers 7.12502 0 0
lthumb -11.1408 38.2395 0
rclavicle -6.4605e-15 4.77083e-15 0
rhumerus -30.5887 14.7155 -85.3507
rradius 94.3893 0 0
rwrist -2.89929 0 0
rhand -43.8452 38.6866 0
rfingers 7.12502 0 0
rthumb -16.6722 9.38262 0
128
root 0.739429 17.2017 31.9632 1.65118 -4.62332 -3.24898
lfemur -14.9191 12.5461 -9.84407
ltibia 110.958 0 0
lfoot 21.6259 -6.92433 0
ltoes -10.3916 0 0
rfemur -16.3644 3.03684 30.5169
rtibia 41.7465 0 0
rfoot -16.5946 -7.69637 0
rtoes -3.0728 0 0
lowerback 17.5727 -2.25587 4.92855
upperback 1.61439 -1.8397 2.08543
thorax -8.20569 -1.0189 -0.0988809
lowerneck -5.3754 3.03216 0.946434
upperneck -11.3153 3.60745 -5.13341
head -2.56319 1.87651 -1.83076
lclavicle -6.36111e-15 2.3059e-14 0
lhumerus -51.0349 -14.5883 93.9371
lradius 104.819 0 0
lwrist 32.0435 0 0
lhand -38.1987 10.8314 0
lfingers 7.12502 0 0
lthumb -11.2309 40.5108 0
rclavicle -6.36111e-15 2.3059e-14 0
rhumerus -28.0606 15.4446 -85.1995
rradius 95.0819 0 0
rwrist -2.54098 0 0
rhand -43.8568 38.7719 0
rfingers 7.12502 0 0
rthumb -16.6834 9.46885 0
129
root 0.723366 17.1646 32.4103 2.40397 -2.15433 -3.10382
lfemur -20.866 10.2248 -10.8126
ltibia 113.381 0 0
lfoot 21.4554 -7.27152 0
ltoes -10.5402 0 0
rfemur -15.9432 1.18564 30.3746
rtibia 42.1308 0 0
rfoot -17.7148 -8.27495 0
rtoes -6.29482 0 0
lowerback 17.1868 -2.81268 5.13313
upperback 1.32027 -2.53961 2.14985
thorax -8.3485 -1.36485 0.0229309
lowerneck -5.16696 2.77478 0.844607
upperneck -11.6382 3.25087 -5.15844
head -2.72252 1.71049 -1.83333
lclavicle 3.72721e-14 -3.65764e-14 0
lhumerus -52.096 -13.9316 94.1483
lradius 104.675 0 0
lwrist 33.6858 0 0
lhand -38.3452 12.2039 0
lfingers 7.12502 0 0
lthumb -11.3722 41.8755 0
rclavicle 3.72721e-14 -3.65764e-14 0
rhumerus -25.9763 15.7538 -84.7773
rradius 95.8975 0 0
rwrist -2.07642 0 0
rhand -43.9041 38.6405 0
rfingers 7.12502 0 0
rthumb -16.7289 9.34125 0
130
root 0.721235 17.1663 32.9674 1.69211 -5.222 -3.67514
lfemur -21.1112 13.3575 -9.68687
ltibia 113.835 0 0
lfoot 19.5234 -8.18804 0
ltoes -10.5292 0 0
rfemur -12.7204 3.13934 30.8355
rtibia 41.9764 0 0
rfoot -18.6251 -7.69601 0
rtoes -10.4581 0 0
lowerback 17.6697 -1.50752 5.00203
upperback 1.69569 -0.826899 2.21259
thorax -8.12656 -0.531254 -0.252415
lowerneck -4.88305 2.51182 0.888913
upperneck -11.8217 2.87869 -5.29043
head -2.84643 1.53322 -1.89373
lclavicle -6.95746e-16 2.74323e-14 0
lhumerus -53.2695 -13.3422 94.3897
lradius 104.714 0 0
lwrist 35.3096 0 0
lhand -38.1354 12.8785 0
lfingers 7.12502 0 0
lthumb -11.1699 42.5612 0
rclavicle -6.95746e-16 2.74323e-14 0
rhumerus -24.5982 15.7018 -84.4914
rradius 96.823 0 0
rwrist -1.42207 0 0
rhand -43.8125 38.3198 0
rfingers 7.12502 0 0
rthumb -16.6407 9.01314 0
131
root 0.702442 17.1669 33.4485 1.78057 -5.29347 -3.99965
lfemur -24.6394 13.5877 -9.54649
ltibia 114.622 0 0
lfoot 18.2727 -8.8045 0
ltoes -12.8727 0 0
rfemur -10.8136 3.31091 31.1969
rtibia 41.6173 0 0
rfoot -18.654 -7.53622 0
rtoes -11.921 0 0
lowerback 18.0877 -1.16935 4.90673
upperback 1.57726 -0.352183 2.35826
thorax -8.46498 -0.30416 -0.149004
lowerneck -5.15145 2.30116 1.06629
upperneck -11.48 2.59305 -5.46056
head -2.68932 1.38138 -1.96654
lclavicle -2.85256e-14 2.34566e-14 0
lhumerus -54.292 -12.7567 94.6028
lradius 104.808 0 0
lwrist 36.5292 0 0
lhand -37.996 12.7205 0
lfingers 7.12502 0 0
lthumb -11.0354 42.4104 0
rclavicle -2.85256e-14 2.34566e-14 0
rhumerus -23.4901 15.6012 -84.2902
rradius 97.8843 0 0
rwrist -0.943379 0 0
rhand -43.7962 38.7057 0
rfingers 7.12502 0 0
rthumb -16.625 9.39775 0
132
root 0.696905 17.1883 33.9543 1.86569 -5.15782 -4.2605
lfemur -27.8694 13.1311 -9.89644
ltibia 114.68 0 0
lfoot 17.2032 -9.20489 0
ltoes -15.552 0 0
rfemur -8.64651 2.97597 31.3619
rtibia 40.9581 0 0
rfoot -17.9769 -6.88895 0
rtoes -11.8048 0 0
lowerback 18.2134 -0.907355 5.09271
upperback 1.57092 0.0416503 2.37971
thorax -8.52576 -0.122969 -0.328494
lowerneck -6.18442 2.09418 1.2168
upperneck -10.6319 2.34591 -5.4815
head -2.23159 1.22945 -1.96271
lclavicle 2.5842e-15 9.93923e-15 0
lhumerus -55.0286 -12.4539 94.8688
lradius 105.126 0 0
lwrist 37.917 0 0
lhand -39.7517 16.794 0
lfingers 7.12502 0 0
lthumb -12.7285 46.386 0
rclavicle 2.5842e-15 9.93923e-15 0
rhumerus -22.3639 15.303 -84.0766
rradius 98.9212 0 0
rwrist -0.69251 0 0
rhand -43.8087 39.1125 0
rfingers 7.12502 0 0
rthumb -16.637 9.80558 0
133
root 0.694359 17.2242 34.4664 2.10134 -5.15339 -4.44421
lfemur -30.9325 12.5341 -10.4862
ltibia 114.225 0 0
lfoot 16.9958 -9.43178 0
ltoes -13.5716 0 0
rfemur -6.56539 2.62847 31.3591
rtibia 40.1108 0 0
rfoot -17.0069 -6.34697 0
rtoes -13.4134 0 0
lowerback 18.0132 -0.502847 5.32718
upperback 1.56962 0.602339 2.33446
thorax -8.38898 0.138854 -0.65172
lowerneck -6.94339 1.78085 0.875123
upperneck -10.0535 1.99636 -5.06282
head -1.92882 1.04385 -1.74518
lclavicle 8.15017e-15 -3.02153e-14 0
lhumerus -55.5889 -12.513 95.1838
lradius 105.321 0 0
lwrist 38.8664 0 0
lhand -42.4033 23.0132 0
lfingers 7.12502 0 0
lthumb -15.2837 52.4285 0
rclavicle 8.15017e-15 -3.02153e-14 0
rhumerus -21.6139 14.6444 -83.7874
rradius 100.093 0 0
rwrist -0.492737 0 0
rhand -43.8811 39.4452 0
rfingers 7.12502 0 0
rthumb -16.7067 10.1442 0
134
root 0.689797 17.2433 34.9644 2.29651 -4.81453 -5.10269
lfemur -34.2817 11.8543 -10.2456
ltibia 113.594 0 0
lfoot 17.1323 -9.93001 0
ltoes -10.2479 0 0
rfemur -4.47522 2.49131 32.024
rtibia 38.9829 0 0
rfoot -15.7241 -5.97176 0
rtoes -14.8343 0 0
lowerback 17.7437 -0.272126 5.99667
upperback 1.57299 1.02451 2.41627
thorax -8.20575 0.32359 -1.04438
lowerneck -6.9664 1.39934 0.423527
upperneck -10.051 1.55239 -4.41527
head -1.9436 0.828563 -1.45987
lclavicle 6.16232e-15 -4.8901e-14 0
lhumerus -56.1594 -12.6282 95.4759
lradius 105.581 0 0
lwrist 40.0542 0 0
lhand -43.4369 23.8136 0
lfingers 7.12502 0 0
lthumb -16.279 53.1503 0
rclavicle 6.16232e-15 -4.8901e-14 0
rhumerus -21.3618 14.0366 -83.6469
rradius 101.601 0 0
rwrist -0.651907 0 0
rhand -44.0043 39.2737 0
rfingers 7.12502 0 0
rthumb -16.8253 9.98264 0
135
root 0.691605 17.3306 35.4996 2.25505 -3.7279 -5.40249
lfemur -37.0234 9.78526 -10.6801
ltibia 112.015 0 0
lfoot 16.6458 -10.005 0
ltoes -10.2757 0 0
rfemur -1.92966 1.78722 32.2998
rtibia 37.3779 0 0
rfoot -14.04 -5.5038 0
rtoes -16.1559 0 0
lowerback 17.5282 -0.371325 6.64476
upperback 1.40138 1.00944 2.36078
thorax -8.26392 0.288881 -1.46399
lowerneck -6.45871 1.11191 0.0859103
upperneck -10.0406 1.22565 -3.7579
head -2.03795 0.672643 -1.1977
lclavicle 1.18277e-14 2.8625e-14 0
lhumerus -57.1029 -12.425 95.6252
lradius 105.983 0 0
lwrist 40.2251 0 0
lhand -42.1942 25.2421 0
lfingers 7.12502 0 0
lthumb -15.0823 54.6727 0
rclavicle 1.18277e-14 2.8625e-14 0
rhumerus -21.8371 13.5868 -83.7795
rradius 103.275 0 0
rwrist -1.13509 0 0
rhand -44.027 39.1144 0
rfingers 7.12502 0 0
rthumb -16.8472 9.82524 0
136
root 0.683461 17.4245 36.0464 2.55326 -4.45202 -5.45937
lfemur -38.9837 9.56804 -11.2395
ltibia 109.849 0 0
lfoot 15.4493 -10.1571 0
ltoes -10.5376 0 0
rfemur 0.499052 2.52935 32.0751
rtibia 35.4488 0 0
rfoot -11.5801 -4.28821 0
rtoes -17.5865 0 0
lowerback 17.3108 0.246158 6.48092
upperback 1.39205 1.75414 2.16454
thorax -8.09611 0.653148 -1.75859
lowerneck -7.45723 0.883439 0.0224529
upperneck -9.48927 0.984364 -3.21202
head -1.69666 0.531823 -0.999799
lclavicle -1.12313e-14 1.31198e-14 0
lhumerus -57.3228 -12.3804 95.5981
lradius 106.225 0 0
lwrist 40.1838 0 0
lhand -41.2771 24.6997 0
lfingers 7.12502 0 0
lthumb -14.1986 54.1945 0
rclavicle -1.12313e-14 1.31198e-14 0
rhumerus -21.7171 13.1838 -83.9339
rradius 104.552 0 0
rwrist -1.81229 0 0
rhand -44.0328 38.9886 0
rfingers 7.12502 0 0
rthumb -16.8528 9.69989 0
137
root 0.677388 17.519 36.6142 2.80067 -5.15399 -5.5778
lfemur -40.5293 9.29237 -11.5977
ltibia 107.307 0 0
lfoot 14.0595 -10.257 0
ltoes -11.5271 0 0
rfemur 3.17258 3.39694 31.8976
rtibia 33.251 0 0
rfoot -8.62217 -2.93638 0
rtoes -17.2627 0 0
lowerback 16.6066 0.872826 6.4508
upperback 1.40289 2.49394 1.94502
thorax -7.62754 1.02253 -2.12988
lowerneck -7.93242 0.541458 0.0699784
upperneck -8.97693 0.569155 -2.74515
head -1.46119 0.309718 -0.857292
lclavicle -1.49089e-14 -1.35174e-14 0
lhumerus -57.8736 -12.3675 95.6047
lradius 106.476 0 0
lwrist 39.8036 0 0
lhand -39.8315 16.5141 0
lfingers 7.12502 0 0
lthumb -12.8053 46.1014 0
rclavicle -1.49089e-14 -1.35174e-14 0
rhumerus -21.7869 12.8732 -84.0942
rradius 105.546 0 0
rwrist -2.51278 0 0
rhand -44.3153 39.3695 0
rfingers 7.12502 0 0
rthumb -17.1247 10.1041 0
138
root 0.680098 17.623 37.1936 2.76126 -5.29964 -5.57435
lfemur -41.7569 8.31842 -12.0869
ltibia 104.364 0 0
lfoot 12.0498 -10.2416 0
ltoes -15.9432 0 0
rfemur 6.15782 3.75811 31.6208
rtibia 30.7661 0 0
rfoot -5.42417 -1.80252 0
rtoes -16.4529 0 0
lowerback 16.6194 1.24172 6.62786
upperback 0.999586 3.01339 1.63364
thorax -8.00509 1.24064 -2.68598
lowerneck -7.79203 0.223092 0.101496
upperneck -8.29907 0.181899 -2.26628
head -1.27432 0.107163 -0.713488
lclavicle -9.74045e-15 -3.51849e-14 0
lhumerus -59.3261 -12.2254 95.688
lradius 106.912 0 0
lwrist 39.0772 0 0
lhand -36.4411 2.89724 0
lfingers 7.12502 0 0
lthumb -9.53542 32.6615 0
rclavicle -9.74045e-15 -3.51849e-14 0
rhumerus -22.6879 12.6832 -84.4506
rradius 106.367 0 0
rwrist -3.12583 0 0
rhand -44.2497 39.4306 0
rfingers 7.12502 0 0
rthumb -17.0616 10.1599 0
139
root 0.661712 17.7102 37.6842 2.87784 -3.78701 -5.49979
lfemur -44.2725 5.88792 -12.5038
ltibia 101.367 0 0
lfoot 12.8604 -10.1921 0
ltoes -12.1909 0 0
rfemur 8.3844 3.58338 31.8355
rtibia 28.1227 0 0
rfoot -1.58734 -1.95702 0
rtoes -15.7842 0 0
lowerback 17.2598 1.0202 6.53779
upperback 0.53986 2.77832 1.53183
thorax -8.88778 1.08723 -2.72386
lowerneck -7.9482 0.088787 -0.171503
upperneck -7.88264 0.0541984 -1.77118
head -1.11884 0.0442361 -0.514234
lclavicle -1.68967e-15 -2.98177e-15 0
lhumerus -60.2172 -11.7539 95.7282
lradius 107.401 0 0
lwrist 38.3652 0 0
lhand -33.9811 -3.59446 0
lfingers 7.12502 0 0
lthumb -7.16134 26.2644 0
rclavicle -1.68967e-15 -2.98177e-15 0
rhumerus -23.2567 12.7683 -84.5862
rradius 106.976 0 0
rwrist -3.67514 0 0
rhand -43.9193 39.1177 0
rfingers 7.12502 0 0
rthumb -16.7435 9.81967 0
140
root 0.642645 17.8243 38.3236 3.6314 -6.20531 -6.30829
lfemur -44.5018 7.62385 -11.863
ltibia 97.8799 0 0
lfoot 11.2048 -10.4632 0
ltoes -11.2825 0 0
rfemur 10.7968 5.4621 31.8927
rtibia 25.2847 0 0
rfoot 3.09267 -0.276478 0
rtoes -13.6861 0 0
lowerback 15.602 2.21826 6.54681
upperback 0.464672 4.23105 1.56888
thorax -7.90844 1.82517 -2.9353
lowerneck -7.8401 0.0845668 -0.409731
upperneck -7.73252 0.0854002 -1.37906
head -1.08865 0.0639991 -0.353802
lclavicle -3.90612e-14 -9.14409e-15 0
lhumerus -61.043 -11.0035 95.6363
lradius 108.026 0 0
lwrist 37.83 0 0
lhand -34.4192 -0.534106 0
lfingers 7.12502 0 0
lthumb -7.58419 29.3099 0
rclavicle -3.90612e-14 -9.14409e-15 0
rhumerus -24.0066 12.9101 -84.7771
rradius 107.788 0 0
rwrist -4.38163 0 0
rhand -43.3217 38.2616 0
rfingers 7.12502 0 0
rthumb -16.1681 8.91589 0
